<svg xmlns="http://www.w3.org/2000/svg" xmlns:xlink="http://www.w3.org/1999/xlink" width="300" zoomAndPan="magnify" viewBox="0 0 224.87999 225" height="300" preserveAspectRatio="xMidYMid meet" version="1.0"><defs><clipPath id="01bc03840c"><path d="M 22.488281 22.546875 L 202.390625 22.546875 L 202.390625 202 L 22.488281 202 Z M 22.488281 22.546875 " clip-rule="nonzero"/></clipPath><clipPath id="56763208cf"><path d="M 75 57 L 153 57 L 153 202.453125 L 75 202.453125 Z M 75 57 " clip-rule="nonzero"/></clipPath></defs><g clip-path="url(#01bc03840c)"><path fill="#02679a" d="M 202.390625 112.5 C 202.390625 62.832031 162.105469 22.546875 112.441406 22.546875 C 62.773438 22.546875 22.488281 62.832031 22.488281 112.5 C 22.488281 157.386719 55.375 194.617188 98.386719 201.363281 L 98.386719 138.5 L 75.546875 138.5 L 75.546875 112.5 L 98.386719 112.5 L 98.386719 92.683594 C 98.386719 70.140625 111.824219 57.683594 132.363281 57.683594 C 142.203125 57.683594 152.496094 59.441406 152.496094 59.441406 L 152.496094 81.578125 L 141.148438 81.578125 C 129.972656 81.578125 126.496094 88.519531 126.496094 95.632812 L 126.496094 112.5 L 151.441406 112.5 L 147.453125 138.5 L 126.496094 138.5 L 126.496094 201.363281 C 169.503906 194.617188 202.390625 157.40625 202.390625 112.5 Z M 202.390625 112.5 " fill-opacity="1" fill-rule="nonzero"/></g><g clip-path="url(#56763208cf)"><path fill="#fefefe" d="M 147.453125 138.5 L 151.441406 112.5 L 126.496094 112.5 L 126.496094 95.632812 C 126.496094 88.519531 129.972656 81.578125 141.148438 81.578125 L 152.496094 81.578125 L 152.496094 59.441406 C 152.496094 59.441406 142.203125 57.683594 132.363281 57.683594 C 111.824219 57.683594 98.386719 70.125 98.386719 92.683594 L 98.386719 112.5 L 75.546875 112.5 L 75.546875 138.5 L 98.386719 138.5 L 98.386719 201.363281 C 102.96875 202.082031 107.660156 202.453125 112.441406 202.453125 C 117.21875 202.453125 121.910156 202.066406 126.496094 201.363281 L 126.496094 138.5 Z M 147.453125 138.5 " fill-opacity="1" fill-rule="nonzero"/></g></svg>